<mxfile host="app.diagrams.net" modified="2024-06-24T07:48:07.845Z" agent="Mozilla/5.0 (Macintosh; Intel Mac OS X 10.15; rv:127.0) Gecko/20100101 Firefox/127.0" etag="0jF4G4hQNznxnX-USCg3" version="24.6.1" type="device">
  <diagram id="C5RBs43oDa-KdzZeNtuy" name="Page-1">
    <mxGraphModel dx="16308" dy="7713" grid="1" gridSize="10" guides="1" tooltips="1" connect="1" arrows="1" fold="1" page="1" pageScale="1" pageWidth="827" pageHeight="1169" math="0" shadow="0">
      <root>
        <mxCell id="WIyWlLk6GJQsqaUBKTNV-0" />
        <mxCell id="WIyWlLk6GJQsqaUBKTNV-1" parent="WIyWlLk6GJQsqaUBKTNV-0" />
        <mxCell id="sXfEVG_WH88d6GnZostk-0" value="" style="rounded=0;html=1;jettySize=auto;orthogonalLoop=1;fontSize=11;endArrow=block;endFill=0;endSize=8;strokeWidth=1;shadow=0;labelBackgroundColor=none;edgeStyle=orthogonalEdgeStyle;" edge="1" source="sXfEVG_WH88d6GnZostk-27" target="sXfEVG_WH88d6GnZostk-5" parent="WIyWlLk6GJQsqaUBKTNV-1">
          <mxGeometry relative="1" as="geometry">
            <mxPoint x="-1530" y="204" as="sourcePoint" />
          </mxGeometry>
        </mxCell>
        <mxCell id="sXfEVG_WH88d6GnZostk-1" value="Yes" style="rounded=0;html=1;jettySize=auto;orthogonalLoop=1;fontSize=11;endArrow=block;endFill=0;endSize=8;strokeWidth=1;shadow=0;labelBackgroundColor=none;edgeStyle=orthogonalEdgeStyle;entryX=0.5;entryY=0;entryDx=0;entryDy=0;" edge="1" source="sXfEVG_WH88d6GnZostk-3" target="sXfEVG_WH88d6GnZostk-24" parent="WIyWlLk6GJQsqaUBKTNV-1">
          <mxGeometry y="20" relative="1" as="geometry">
            <mxPoint as="offset" />
            <mxPoint x="-1530" y="434" as="targetPoint" />
          </mxGeometry>
        </mxCell>
        <mxCell id="sXfEVG_WH88d6GnZostk-2" value="No" style="edgeStyle=orthogonalEdgeStyle;rounded=0;html=1;jettySize=auto;orthogonalLoop=1;fontSize=11;endArrow=block;endFill=0;endSize=8;strokeWidth=1;shadow=0;labelBackgroundColor=none;entryX=-0.05;entryY=0.525;entryDx=0;entryDy=0;entryPerimeter=0;" edge="1" source="sXfEVG_WH88d6GnZostk-3" target="sXfEVG_WH88d6GnZostk-6" parent="WIyWlLk6GJQsqaUBKTNV-1">
          <mxGeometry y="10" relative="1" as="geometry">
            <mxPoint as="offset" />
            <mxPoint x="-1430" y="314" as="targetPoint" />
          </mxGeometry>
        </mxCell>
        <mxCell id="sXfEVG_WH88d6GnZostk-3" value="config load success ?" style="rhombus;whiteSpace=wrap;html=1;shadow=0;fontFamily=Helvetica;fontSize=12;align=center;strokeWidth=1;spacing=6;spacingTop=-4;" vertex="1" parent="WIyWlLk6GJQsqaUBKTNV-1">
          <mxGeometry x="-1580" y="314" width="100" height="80" as="geometry" />
        </mxCell>
        <mxCell id="sXfEVG_WH88d6GnZostk-4" style="edgeStyle=orthogonalEdgeStyle;rounded=0;orthogonalLoop=1;jettySize=auto;html=1;" edge="1" source="sXfEVG_WH88d6GnZostk-5" target="sXfEVG_WH88d6GnZostk-3" parent="WIyWlLk6GJQsqaUBKTNV-1">
          <mxGeometry relative="1" as="geometry" />
        </mxCell>
        <mxCell id="sXfEVG_WH88d6GnZostk-5" value="load config" style="rounded=1;whiteSpace=wrap;html=1;fontSize=12;glass=0;strokeWidth=1;shadow=0;" vertex="1" parent="WIyWlLk6GJQsqaUBKTNV-1">
          <mxGeometry x="-1590" y="234" width="120" height="40" as="geometry" />
        </mxCell>
        <mxCell id="sXfEVG_WH88d6GnZostk-6" value="end" style="ellipse;whiteSpace=wrap;html=1;aspect=fixed;" vertex="1" parent="WIyWlLk6GJQsqaUBKTNV-1">
          <mxGeometry x="-1420" y="334" width="40" height="40" as="geometry" />
        </mxCell>
        <mxCell id="sXfEVG_WH88d6GnZostk-11" style="edgeStyle=orthogonalEdgeStyle;rounded=0;orthogonalLoop=1;jettySize=auto;html=1;entryX=0.5;entryY=0;entryDx=0;entryDy=0;" edge="1" source="sXfEVG_WH88d6GnZostk-12" target="sXfEVG_WH88d6GnZostk-17" parent="WIyWlLk6GJQsqaUBKTNV-1">
          <mxGeometry relative="1" as="geometry">
            <mxPoint x="-1530" y="879" as="targetPoint" />
          </mxGeometry>
        </mxCell>
        <mxCell id="sXfEVG_WH88d6GnZostk-12" value="execute test suite &amp;amp; control test in //" style="rounded=1;whiteSpace=wrap;html=1;fontSize=12;glass=0;strokeWidth=1;shadow=0;" vertex="1" parent="WIyWlLk6GJQsqaUBKTNV-1">
          <mxGeometry x="-1590" y="789" width="120" height="40" as="geometry" />
        </mxCell>
        <mxCell id="sXfEVG_WH88d6GnZostk-13" style="edgeStyle=orthogonalEdgeStyle;rounded=0;orthogonalLoop=1;jettySize=auto;html=1;" edge="1" source="sXfEVG_WH88d6GnZostk-17" target="sXfEVG_WH88d6GnZostk-32" parent="WIyWlLk6GJQsqaUBKTNV-1">
          <mxGeometry relative="1" as="geometry">
            <mxPoint x="-1270" y="1033.94" as="targetPoint" />
          </mxGeometry>
        </mxCell>
        <mxCell id="sXfEVG_WH88d6GnZostk-14" value="green" style="edgeLabel;html=1;align=center;verticalAlign=middle;resizable=0;points=[];" vertex="1" connectable="0" parent="sXfEVG_WH88d6GnZostk-13">
          <mxGeometry x="-0.0226" y="-1" relative="1" as="geometry">
            <mxPoint as="offset" />
          </mxGeometry>
        </mxCell>
        <mxCell id="sXfEVG_WH88d6GnZostk-15" style="edgeStyle=orthogonalEdgeStyle;rounded=0;orthogonalLoop=1;jettySize=auto;html=1;" edge="1" source="sXfEVG_WH88d6GnZostk-17" target="sXfEVG_WH88d6GnZostk-42" parent="WIyWlLk6GJQsqaUBKTNV-1">
          <mxGeometry relative="1" as="geometry" />
        </mxCell>
        <mxCell id="sXfEVG_WH88d6GnZostk-16" value="red" style="edgeLabel;html=1;align=center;verticalAlign=middle;resizable=0;points=[];" vertex="1" connectable="0" parent="sXfEVG_WH88d6GnZostk-15">
          <mxGeometry x="-0.355" y="-1" relative="1" as="geometry">
            <mxPoint as="offset" />
          </mxGeometry>
        </mxCell>
        <mxCell id="sXfEVG_WH88d6GnZostk-17" value="result" style="rhombus;whiteSpace=wrap;html=1;shadow=0;fontFamily=Helvetica;fontSize=12;align=center;strokeWidth=1;spacing=6;spacingTop=-4;" vertex="1" parent="WIyWlLk6GJQsqaUBKTNV-1">
          <mxGeometry x="-1580" y="968.94" width="100" height="80" as="geometry" />
        </mxCell>
        <mxCell id="sXfEVG_WH88d6GnZostk-18" style="edgeStyle=orthogonalEdgeStyle;rounded=0;orthogonalLoop=1;jettySize=auto;html=1;" edge="1" source="sXfEVG_WH88d6GnZostk-19" target="sXfEVG_WH88d6GnZostk-53" parent="WIyWlLk6GJQsqaUBKTNV-1">
          <mxGeometry relative="1" as="geometry">
            <Array as="points">
              <mxPoint x="-1930" y="1333.94" />
            </Array>
          </mxGeometry>
        </mxCell>
        <mxCell id="sXfEVG_WH88d6GnZostk-19" value="DoNothing" style="rounded=1;whiteSpace=wrap;html=1;fontSize=12;glass=0;strokeWidth=1;shadow=0;" vertex="1" parent="WIyWlLk6GJQsqaUBKTNV-1">
          <mxGeometry x="-1990" y="1153.94" width="120" height="40" as="geometry" />
        </mxCell>
        <mxCell id="sXfEVG_WH88d6GnZostk-20" value="" style="edgeStyle=orthogonalEdgeStyle;rounded=0;orthogonalLoop=1;jettySize=auto;html=1;" edge="1" source="sXfEVG_WH88d6GnZostk-24" target="sXfEVG_WH88d6GnZostk-26" parent="WIyWlLk6GJQsqaUBKTNV-1">
          <mxGeometry relative="1" as="geometry" />
        </mxCell>
        <mxCell id="sXfEVG_WH88d6GnZostk-21" value="yes" style="edgeLabel;html=1;align=center;verticalAlign=middle;resizable=0;points=[];" vertex="1" connectable="0" parent="sXfEVG_WH88d6GnZostk-20">
          <mxGeometry x="0.2061" y="3" relative="1" as="geometry">
            <mxPoint as="offset" />
          </mxGeometry>
        </mxCell>
        <mxCell id="sXfEVG_WH88d6GnZostk-22" style="edgeStyle=orthogonalEdgeStyle;rounded=0;orthogonalLoop=1;jettySize=auto;html=1;entryX=0.5;entryY=0;entryDx=0;entryDy=0;" edge="1" source="sXfEVG_WH88d6GnZostk-24" target="sXfEVG_WH88d6GnZostk-72" parent="WIyWlLk6GJQsqaUBKTNV-1">
          <mxGeometry relative="1" as="geometry">
            <Array as="points">
              <mxPoint x="-1370" y="474" />
            </Array>
            <mxPoint x="-1511.3235294117653" y="744.0588235294119" as="targetPoint" />
          </mxGeometry>
        </mxCell>
        <mxCell id="sXfEVG_WH88d6GnZostk-23" value="no" style="edgeLabel;html=1;align=center;verticalAlign=middle;resizable=0;points=[];" vertex="1" connectable="0" parent="sXfEVG_WH88d6GnZostk-22">
          <mxGeometry x="-0.2111" y="3" relative="1" as="geometry">
            <mxPoint as="offset" />
          </mxGeometry>
        </mxCell>
        <mxCell id="sXfEVG_WH88d6GnZostk-24" value="previous state found ?" style="rhombus;whiteSpace=wrap;html=1;shadow=0;fontFamily=Helvetica;fontSize=12;align=center;strokeWidth=1;spacing=6;spacingTop=-4;" vertex="1" parent="WIyWlLk6GJQsqaUBKTNV-1">
          <mxGeometry x="-1580" y="434" width="100" height="80" as="geometry" />
        </mxCell>
        <mxCell id="sXfEVG_WH88d6GnZostk-25" style="edgeStyle=orthogonalEdgeStyle;rounded=0;orthogonalLoop=1;jettySize=auto;html=1;" edge="1" source="sXfEVG_WH88d6GnZostk-26" target="sXfEVG_WH88d6GnZostk-12" parent="WIyWlLk6GJQsqaUBKTNV-1">
          <mxGeometry relative="1" as="geometry">
            <mxPoint x="-1530" y="679" as="targetPoint" />
          </mxGeometry>
        </mxCell>
        <mxCell id="sXfEVG_WH88d6GnZostk-26" value="restore session state" style="whiteSpace=wrap;html=1;shadow=0;strokeWidth=1;spacing=6;spacingTop=-4;" vertex="1" parent="WIyWlLk6GJQsqaUBKTNV-1">
          <mxGeometry x="-1590" y="574" width="120" height="60" as="geometry" />
        </mxCell>
        <mxCell id="sXfEVG_WH88d6GnZostk-27" value="start" style="ellipse;whiteSpace=wrap;html=1;aspect=fixed;" vertex="1" parent="WIyWlLk6GJQsqaUBKTNV-1">
          <mxGeometry x="-1550" y="164" width="40" height="40" as="geometry" />
        </mxCell>
        <mxCell id="sXfEVG_WH88d6GnZostk-28" style="edgeStyle=orthogonalEdgeStyle;rounded=0;orthogonalLoop=1;jettySize=auto;html=1;" edge="1" source="sXfEVG_WH88d6GnZostk-32" target="sXfEVG_WH88d6GnZostk-60" parent="WIyWlLk6GJQsqaUBKTNV-1">
          <mxGeometry relative="1" as="geometry">
            <mxPoint x="-1060" y="1148.94" as="targetPoint" />
            <Array as="points">
              <mxPoint x="-760" y="1148.94" />
            </Array>
          </mxGeometry>
        </mxCell>
        <mxCell id="sXfEVG_WH88d6GnZostk-29" value="no" style="edgeLabel;html=1;align=center;verticalAlign=middle;resizable=0;points=[];" vertex="1" connectable="0" parent="sXfEVG_WH88d6GnZostk-28">
          <mxGeometry x="-0.0556" y="-4" relative="1" as="geometry">
            <mxPoint as="offset" />
          </mxGeometry>
        </mxCell>
        <mxCell id="sXfEVG_WH88d6GnZostk-30" style="edgeStyle=orthogonalEdgeStyle;rounded=0;orthogonalLoop=1;jettySize=auto;html=1;" edge="1" source="sXfEVG_WH88d6GnZostk-32" target="sXfEVG_WH88d6GnZostk-38" parent="WIyWlLk6GJQsqaUBKTNV-1">
          <mxGeometry relative="1" as="geometry" />
        </mxCell>
        <mxCell id="sXfEVG_WH88d6GnZostk-31" value="yes" style="edgeLabel;html=1;align=center;verticalAlign=middle;resizable=0;points=[];" vertex="1" connectable="0" parent="sXfEVG_WH88d6GnZostk-30">
          <mxGeometry x="-0.1933" y="3" relative="1" as="geometry">
            <mxPoint as="offset" />
          </mxGeometry>
        </mxCell>
        <mxCell id="sXfEVG_WH88d6GnZostk-32" value="previous was red ?" style="rhombus;whiteSpace=wrap;html=1;shadow=0;fontFamily=Helvetica;fontSize=12;align=center;strokeWidth=1;spacing=6;spacingTop=-4;" vertex="1" parent="WIyWlLk6GJQsqaUBKTNV-1">
          <mxGeometry x="-1320" y="1108.94" width="100" height="80" as="geometry" />
        </mxCell>
        <mxCell id="sXfEVG_WH88d6GnZostk-35" style="edgeStyle=orthogonalEdgeStyle;rounded=0;orthogonalLoop=1;jettySize=auto;html=1;entryX=0;entryY=0.5;entryDx=0;entryDy=0;" edge="1" source="sXfEVG_WH88d6GnZostk-38" target="sXfEVG_WH88d6GnZostk-46" parent="WIyWlLk6GJQsqaUBKTNV-1">
          <mxGeometry relative="1" as="geometry">
            <mxPoint x="-1140" y="1248.9399999999998" as="targetPoint" />
          </mxGeometry>
        </mxCell>
        <mxCell id="sXfEVG_WH88d6GnZostk-36" value="no" style="edgeLabel;html=1;align=center;verticalAlign=middle;resizable=0;points=[];" vertex="1" connectable="0" parent="sXfEVG_WH88d6GnZostk-35">
          <mxGeometry x="0.0062" y="-4" relative="1" as="geometry">
            <mxPoint x="-2" as="offset" />
          </mxGeometry>
        </mxCell>
        <mxCell id="sXfEVG_WH88d6GnZostk-37" style="edgeStyle=orthogonalEdgeStyle;rounded=0;orthogonalLoop=1;jettySize=auto;html=1;" edge="1" source="sXfEVG_WH88d6GnZostk-38" target="sXfEVG_WH88d6GnZostk-67" parent="WIyWlLk6GJQsqaUBKTNV-1">
          <mxGeometry relative="1" as="geometry" />
        </mxCell>
        <mxCell id="sXfEVG_WH88d6GnZostk-38" value="more case passing ?" style="rhombus;whiteSpace=wrap;html=1;shadow=0;fontFamily=Helvetica;fontSize=12;align=center;strokeWidth=1;spacing=6;spacingTop=-4;" vertex="1" parent="WIyWlLk6GJQsqaUBKTNV-1">
          <mxGeometry x="-1320" y="1238.94" width="100" height="80" as="geometry" />
        </mxCell>
        <mxCell id="sXfEVG_WH88d6GnZostk-39" style="edgeStyle=orthogonalEdgeStyle;rounded=0;orthogonalLoop=1;jettySize=auto;html=1;" edge="1" source="sXfEVG_WH88d6GnZostk-42" target="sXfEVG_WH88d6GnZostk-19" parent="WIyWlLk6GJQsqaUBKTNV-1">
          <mxGeometry relative="1" as="geometry" />
        </mxCell>
        <mxCell id="sXfEVG_WH88d6GnZostk-40" value="no" style="edgeLabel;html=1;align=center;verticalAlign=middle;resizable=0;points=[];" vertex="1" connectable="0" parent="sXfEVG_WH88d6GnZostk-39">
          <mxGeometry x="-0.5439" y="3" relative="1" as="geometry">
            <mxPoint as="offset" />
          </mxGeometry>
        </mxCell>
        <mxCell id="sXfEVG_WH88d6GnZostk-41" value="yes" style="edgeStyle=orthogonalEdgeStyle;rounded=0;orthogonalLoop=1;jettySize=auto;html=1;" edge="1" source="sXfEVG_WH88d6GnZostk-42" target="sXfEVG_WH88d6GnZostk-44" parent="WIyWlLk6GJQsqaUBKTNV-1">
          <mxGeometry relative="1" as="geometry" />
        </mxCell>
        <mxCell id="sXfEVG_WH88d6GnZostk-42" value="previous was red ?" style="rhombus;whiteSpace=wrap;html=1;shadow=0;fontFamily=Helvetica;fontSize=12;align=center;strokeWidth=1;spacing=6;spacingTop=-4;" vertex="1" parent="WIyWlLk6GJQsqaUBKTNV-1">
          <mxGeometry x="-1790" y="968.94" width="100" height="80" as="geometry" />
        </mxCell>
        <mxCell id="sXfEVG_WH88d6GnZostk-43" style="edgeStyle=orthogonalEdgeStyle;rounded=0;orthogonalLoop=1;jettySize=auto;html=1;" edge="1" source="sXfEVG_WH88d6GnZostk-44" target="sXfEVG_WH88d6GnZostk-53" parent="WIyWlLk6GJQsqaUBKTNV-1">
          <mxGeometry relative="1" as="geometry">
            <Array as="points">
              <mxPoint x="-1750" y="1283.94" />
            </Array>
          </mxGeometry>
        </mxCell>
        <mxCell id="sXfEVG_WH88d6GnZostk-44" value="decrease score (double red)" style="rounded=1;whiteSpace=wrap;html=1;fontSize=12;glass=0;strokeWidth=1;shadow=0;" vertex="1" parent="WIyWlLk6GJQsqaUBKTNV-1">
          <mxGeometry x="-1800" y="1148.94" width="120" height="40" as="geometry" />
        </mxCell>
        <mxCell id="sXfEVG_WH88d6GnZostk-45" style="edgeStyle=orthogonalEdgeStyle;rounded=0;orthogonalLoop=1;jettySize=auto;html=1;" edge="1" source="sXfEVG_WH88d6GnZostk-46" target="sXfEVG_WH88d6GnZostk-56" parent="WIyWlLk6GJQsqaUBKTNV-1">
          <mxGeometry relative="1" as="geometry" />
        </mxCell>
        <mxCell id="sXfEVG_WH88d6GnZostk-46" value="decrease score &lt;br&gt;(regression or fake red green)" style="rounded=1;whiteSpace=wrap;html=1;fontSize=12;glass=0;strokeWidth=1;shadow=0;" vertex="1" parent="WIyWlLk6GJQsqaUBKTNV-1">
          <mxGeometry x="-1060" y="1258.94" width="120" height="40" as="geometry" />
        </mxCell>
        <mxCell id="sXfEVG_WH88d6GnZostk-47" style="edgeStyle=orthogonalEdgeStyle;rounded=0;orthogonalLoop=1;jettySize=auto;html=1;" edge="1" source="sXfEVG_WH88d6GnZostk-48" target="sXfEVG_WH88d6GnZostk-56" parent="WIyWlLk6GJQsqaUBKTNV-1">
          <mxGeometry relative="1" as="geometry" />
        </mxCell>
        <mxCell id="sXfEVG_WH88d6GnZostk-48" value="increase based on durations since previous test run&lt;br&gt;(progresses made)" style="rounded=1;whiteSpace=wrap;html=1;fontSize=12;glass=0;strokeWidth=1;shadow=0;" vertex="1" parent="WIyWlLk6GJQsqaUBKTNV-1">
          <mxGeometry x="-1140" y="1367.91" width="120" height="90.06" as="geometry" />
        </mxCell>
        <mxCell id="sXfEVG_WH88d6GnZostk-49" value="&lt;i&gt;green -&amp;gt; green&lt;/i&gt;" style="text;html=1;align=center;verticalAlign=middle;whiteSpace=wrap;rounded=0;" vertex="1" parent="WIyWlLk6GJQsqaUBKTNV-1">
          <mxGeometry x="-1200" y="1113.94" width="100" height="30" as="geometry" />
        </mxCell>
        <mxCell id="sXfEVG_WH88d6GnZostk-50" value="&lt;i&gt;red -&amp;gt; green&lt;/i&gt;" style="text;html=1;align=center;verticalAlign=middle;whiteSpace=wrap;rounded=0;" vertex="1" parent="WIyWlLk6GJQsqaUBKTNV-1">
          <mxGeometry x="-1380" y="1193.94" width="100" height="30" as="geometry" />
        </mxCell>
        <mxCell id="sXfEVG_WH88d6GnZostk-51" value="&lt;i&gt;red -&amp;gt; red&lt;/i&gt;" style="text;html=1;align=center;verticalAlign=middle;whiteSpace=wrap;rounded=0;" vertex="1" parent="WIyWlLk6GJQsqaUBKTNV-1">
          <mxGeometry x="-1740" y="1063.94" width="100" height="30" as="geometry" />
        </mxCell>
        <mxCell id="sXfEVG_WH88d6GnZostk-52" value="&lt;i&gt;green -&amp;gt; red&lt;/i&gt;" style="text;html=1;align=center;verticalAlign=middle;whiteSpace=wrap;rounded=0;" vertex="1" parent="WIyWlLk6GJQsqaUBKTNV-1">
          <mxGeometry x="-1880" y="968.94" width="100" height="30" as="geometry" />
        </mxCell>
        <mxCell id="sXfEVG_WH88d6GnZostk-87" style="edgeStyle=orthogonalEdgeStyle;rounded=0;orthogonalLoop=1;jettySize=auto;html=1;" edge="1" parent="WIyWlLk6GJQsqaUBKTNV-1" source="sXfEVG_WH88d6GnZostk-53" target="sXfEVG_WH88d6GnZostk-78">
          <mxGeometry relative="1" as="geometry">
            <Array as="points">
              <mxPoint x="-1740" y="1804" />
              <mxPoint x="-1420" y="1804" />
            </Array>
          </mxGeometry>
        </mxCell>
        <mxCell id="sXfEVG_WH88d6GnZostk-53" value="" style="ellipse;whiteSpace=wrap;html=1;aspect=fixed;" vertex="1" parent="WIyWlLk6GJQsqaUBKTNV-1">
          <mxGeometry x="-1790" y="1292.94" width="80" height="80" as="geometry" />
        </mxCell>
        <mxCell id="sXfEVG_WH88d6GnZostk-86" style="edgeStyle=orthogonalEdgeStyle;rounded=0;orthogonalLoop=1;jettySize=auto;html=1;" edge="1" parent="WIyWlLk6GJQsqaUBKTNV-1" source="sXfEVG_WH88d6GnZostk-56" target="sXfEVG_WH88d6GnZostk-78">
          <mxGeometry relative="1" as="geometry">
            <Array as="points">
              <mxPoint x="-850" y="1804" />
              <mxPoint x="-1420" y="1804" />
            </Array>
          </mxGeometry>
        </mxCell>
        <mxCell id="sXfEVG_WH88d6GnZostk-56" value="" style="ellipse;whiteSpace=wrap;html=1;aspect=fixed;" vertex="1" parent="WIyWlLk6GJQsqaUBKTNV-1">
          <mxGeometry x="-890" y="1373.94" width="80" height="80" as="geometry" />
        </mxCell>
        <mxCell id="sXfEVG_WH88d6GnZostk-57" style="edgeStyle=orthogonalEdgeStyle;rounded=0;orthogonalLoop=1;jettySize=auto;html=1;entryX=1;entryY=0.5;entryDx=0;entryDy=0;" edge="1" source="sXfEVG_WH88d6GnZostk-60" target="sXfEVG_WH88d6GnZostk-56" parent="WIyWlLk6GJQsqaUBKTNV-1">
          <mxGeometry relative="1" as="geometry">
            <mxPoint x="-760" y="1278.9399999999998" as="targetPoint" />
            <Array as="points">
              <mxPoint x="-760" y="1413.94" />
            </Array>
          </mxGeometry>
        </mxCell>
        <mxCell id="sXfEVG_WH88d6GnZostk-58" value="yes" style="edgeLabel;html=1;align=center;verticalAlign=middle;resizable=0;points=[];" vertex="1" connectable="0" parent="sXfEVG_WH88d6GnZostk-57">
          <mxGeometry x="-0.7705" y="-1" relative="1" as="geometry">
            <mxPoint as="offset" />
          </mxGeometry>
        </mxCell>
        <mxCell id="sXfEVG_WH88d6GnZostk-59" value="no" style="edgeStyle=orthogonalEdgeStyle;rounded=0;orthogonalLoop=1;jettySize=auto;html=1;" edge="1" source="sXfEVG_WH88d6GnZostk-60" target="sXfEVG_WH88d6GnZostk-62" parent="WIyWlLk6GJQsqaUBKTNV-1">
          <mxGeometry relative="1" as="geometry">
            <mxPoint x="-620" y="1208.9399999999998" as="targetPoint" />
          </mxGeometry>
        </mxCell>
        <mxCell id="sXfEVG_WH88d6GnZostk-60" value="same amount of tests pass" style="rhombus;whiteSpace=wrap;html=1;shadow=0;fontFamily=Helvetica;fontSize=12;align=center;strokeWidth=1;spacing=6;spacingTop=-4;" vertex="1" parent="WIyWlLk6GJQsqaUBKTNV-1">
          <mxGeometry x="-810" y="1168.94" width="100" height="80" as="geometry" />
        </mxCell>
        <mxCell id="sXfEVG_WH88d6GnZostk-61" style="edgeStyle=orthogonalEdgeStyle;rounded=0;orthogonalLoop=1;jettySize=auto;html=1;entryX=1;entryY=0.5;entryDx=0;entryDy=0;" edge="1" source="sXfEVG_WH88d6GnZostk-62" target="sXfEVG_WH88d6GnZostk-56" parent="WIyWlLk6GJQsqaUBKTNV-1">
          <mxGeometry relative="1" as="geometry">
            <Array as="points">
              <mxPoint x="-570" y="1364" />
              <mxPoint x="-760" y="1364" />
              <mxPoint x="-760" y="1414" />
            </Array>
          </mxGeometry>
        </mxCell>
        <mxCell id="sXfEVG_WH88d6GnZostk-62" value="decrease score (refacto changed behaviour)" style="rounded=1;whiteSpace=wrap;html=1;fontSize=12;glass=0;strokeWidth=1;shadow=0;" vertex="1" parent="WIyWlLk6GJQsqaUBKTNV-1">
          <mxGeometry x="-630" y="1188.94" width="120" height="40" as="geometry" />
        </mxCell>
        <mxCell id="sXfEVG_WH88d6GnZostk-63" style="edgeStyle=orthogonalEdgeStyle;rounded=0;orthogonalLoop=1;jettySize=auto;html=1;" edge="1" source="sXfEVG_WH88d6GnZostk-67" target="sXfEVG_WH88d6GnZostk-48" parent="WIyWlLk6GJQsqaUBKTNV-1">
          <mxGeometry relative="1" as="geometry" />
        </mxCell>
        <mxCell id="sXfEVG_WH88d6GnZostk-64" value="no" style="edgeLabel;html=1;align=center;verticalAlign=middle;resizable=0;points=[];" vertex="1" connectable="0" parent="sXfEVG_WH88d6GnZostk-63">
          <mxGeometry x="0.2204" relative="1" as="geometry">
            <mxPoint as="offset" />
          </mxGeometry>
        </mxCell>
        <mxCell id="sXfEVG_WH88d6GnZostk-65" style="edgeStyle=orthogonalEdgeStyle;rounded=0;orthogonalLoop=1;jettySize=auto;html=1;" edge="1" source="sXfEVG_WH88d6GnZostk-67" target="sXfEVG_WH88d6GnZostk-68" parent="WIyWlLk6GJQsqaUBKTNV-1">
          <mxGeometry relative="1" as="geometry" />
        </mxCell>
        <mxCell id="sXfEVG_WH88d6GnZostk-66" value="yes" style="edgeLabel;html=1;align=center;verticalAlign=middle;resizable=0;points=[];" vertex="1" connectable="0" parent="sXfEVG_WH88d6GnZostk-65">
          <mxGeometry x="-0.2286" y="2" relative="1" as="geometry">
            <mxPoint as="offset" />
          </mxGeometry>
        </mxCell>
        <mxCell id="sXfEVG_WH88d6GnZostk-67" value="100% passing &lt;br&gt;?" style="rhombus;whiteSpace=wrap;html=1;shadow=0;fontFamily=Helvetica;fontSize=12;align=center;strokeWidth=1;spacing=6;spacingTop=-4;" vertex="1" parent="WIyWlLk6GJQsqaUBKTNV-1">
          <mxGeometry x="-1320" y="1372.94" width="100" height="80" as="geometry" />
        </mxCell>
        <mxCell id="sXfEVG_WH88d6GnZostk-80" style="edgeStyle=orthogonalEdgeStyle;rounded=0;orthogonalLoop=1;jettySize=auto;html=1;" edge="1" parent="WIyWlLk6GJQsqaUBKTNV-1" source="sXfEVG_WH88d6GnZostk-68" target="sXfEVG_WH88d6GnZostk-56">
          <mxGeometry relative="1" as="geometry">
            <Array as="points">
              <mxPoint x="-1270" y="1623.94" />
              <mxPoint x="-940" y="1623.94" />
              <mxPoint x="-940" y="1413.94" />
            </Array>
          </mxGeometry>
        </mxCell>
        <mxCell id="sXfEVG_WH88d6GnZostk-68" value="&lt;div&gt;end of&amp;nbsp;&lt;/div&gt;&lt;div&gt;session&lt;/div&gt;" style="ellipse;whiteSpace=wrap;html=1;aspect=fixed;" vertex="1" parent="WIyWlLk6GJQsqaUBKTNV-1">
          <mxGeometry x="-1310" y="1513.94" width="80" height="80" as="geometry" />
        </mxCell>
        <mxCell id="sXfEVG_WH88d6GnZostk-71" value="&lt;i&gt;reset timer ? keep running ?&lt;br&gt;&lt;/i&gt;" style="text;html=1;align=center;verticalAlign=middle;whiteSpace=wrap;rounded=0;" vertex="1" parent="WIyWlLk6GJQsqaUBKTNV-1">
          <mxGeometry x="-1740" y="1198.94" width="100" height="30" as="geometry" />
        </mxCell>
        <mxCell id="sXfEVG_WH88d6GnZostk-73" style="edgeStyle=orthogonalEdgeStyle;rounded=0;orthogonalLoop=1;jettySize=auto;html=1;" edge="1" parent="WIyWlLk6GJQsqaUBKTNV-1" source="sXfEVG_WH88d6GnZostk-72" target="sXfEVG_WH88d6GnZostk-12">
          <mxGeometry relative="1" as="geometry">
            <Array as="points">
              <mxPoint x="-1370" y="734" />
              <mxPoint x="-1530" y="734" />
            </Array>
          </mxGeometry>
        </mxCell>
        <mxCell id="sXfEVG_WH88d6GnZostk-72" value="load default initial state" style="whiteSpace=wrap;html=1;shadow=0;strokeWidth=1;spacing=6;spacingTop=-4;" vertex="1" parent="WIyWlLk6GJQsqaUBKTNV-1">
          <mxGeometry x="-1430" y="574" width="120" height="60" as="geometry" />
        </mxCell>
        <mxCell id="sXfEVG_WH88d6GnZostk-79" value="" style="edgeStyle=orthogonalEdgeStyle;rounded=0;orthogonalLoop=1;jettySize=auto;html=1;" edge="1" parent="WIyWlLk6GJQsqaUBKTNV-1" target="sXfEVG_WH88d6GnZostk-78">
          <mxGeometry relative="1" as="geometry">
            <mxPoint x="-1420" y="1934" as="sourcePoint" />
          </mxGeometry>
        </mxCell>
        <mxCell id="sXfEVG_WH88d6GnZostk-89" style="edgeStyle=orthogonalEdgeStyle;rounded=0;orthogonalLoop=1;jettySize=auto;html=1;" edge="1" parent="WIyWlLk6GJQsqaUBKTNV-1" source="sXfEVG_WH88d6GnZostk-78" target="sXfEVG_WH88d6GnZostk-88">
          <mxGeometry relative="1" as="geometry" />
        </mxCell>
        <mxCell id="sXfEVG_WH88d6GnZostk-78" value="store state" style="whiteSpace=wrap;html=1;" vertex="1" parent="WIyWlLk6GJQsqaUBKTNV-1">
          <mxGeometry x="-1480" y="1984" width="120" height="60" as="geometry" />
        </mxCell>
        <mxCell id="sXfEVG_WH88d6GnZostk-83" value="run (default command)&lt;font style=&quot;font-size: 30px;&quot;&gt;&lt;br style=&quot;font-size: 30px;&quot;&gt;&lt;/font&gt;" style="text;html=1;align=center;verticalAlign=middle;whiteSpace=wrap;rounded=0;fontSize=30;" vertex="1" parent="WIyWlLk6GJQsqaUBKTNV-1">
          <mxGeometry x="-1710" y="64" width="390" height="55" as="geometry" />
        </mxCell>
        <mxCell id="sXfEVG_WH88d6GnZostk-85" value="display score" style="text;html=1;align=center;verticalAlign=middle;whiteSpace=wrap;rounded=0;fontSize=30;" vertex="1" parent="WIyWlLk6GJQsqaUBKTNV-1">
          <mxGeometry x="24" y="54" width="390" height="55" as="geometry" />
        </mxCell>
        <mxCell id="sXfEVG_WH88d6GnZostk-88" value="&lt;font color=&quot;#ffffff&quot;&gt;end&lt;/font&gt;" style="ellipse;whiteSpace=wrap;html=1;aspect=fixed;fillColor=#000000;" vertex="1" parent="WIyWlLk6GJQsqaUBKTNV-1">
          <mxGeometry x="-1460" y="2074" width="80" height="80" as="geometry" />
        </mxCell>
        <mxCell id="sXfEVG_WH88d6GnZostk-91" value="" style="rounded=0;html=1;jettySize=auto;orthogonalLoop=1;fontSize=11;endArrow=block;endFill=0;endSize=8;strokeWidth=1;shadow=0;labelBackgroundColor=none;edgeStyle=orthogonalEdgeStyle;entryX=0.5;entryY=0;entryDx=0;entryDy=0;" edge="1" source="sXfEVG_WH88d6GnZostk-113" target="sXfEVG_WH88d6GnZostk-110" parent="WIyWlLk6GJQsqaUBKTNV-1">
          <mxGeometry y="20" relative="1" as="geometry">
            <mxPoint as="offset" />
            <mxPoint x="230" y="248.94" as="targetPoint" />
            <mxPoint x="230" y="208.94000000000005" as="sourcePoint" />
          </mxGeometry>
        </mxCell>
        <mxCell id="sXfEVG_WH88d6GnZostk-97" style="edgeStyle=orthogonalEdgeStyle;rounded=0;orthogonalLoop=1;jettySize=auto;html=1;entryX=0.5;entryY=0.5;entryDx=0;entryDy=0;entryPerimeter=0;" edge="1" source="sXfEVG_WH88d6GnZostk-98" target="sXfEVG_WH88d6GnZostk-161" parent="WIyWlLk6GJQsqaUBKTNV-1">
          <mxGeometry relative="1" as="geometry">
            <mxPoint x="230" y="783.8800000000006" as="targetPoint" />
          </mxGeometry>
        </mxCell>
        <mxCell id="sXfEVG_WH88d6GnZostk-98" value="calculate score" style="rounded=1;whiteSpace=wrap;html=1;fontSize=12;glass=0;strokeWidth=1;shadow=0;" vertex="1" parent="WIyWlLk6GJQsqaUBKTNV-1">
          <mxGeometry x="170" y="603.94" width="120" height="40" as="geometry" />
        </mxCell>
        <mxCell id="sXfEVG_WH88d6GnZostk-106" value="" style="edgeStyle=orthogonalEdgeStyle;rounded=0;orthogonalLoop=1;jettySize=auto;html=1;" edge="1" source="sXfEVG_WH88d6GnZostk-110" target="sXfEVG_WH88d6GnZostk-112" parent="WIyWlLk6GJQsqaUBKTNV-1">
          <mxGeometry relative="1" as="geometry" />
        </mxCell>
        <mxCell id="sXfEVG_WH88d6GnZostk-107" value="yes" style="edgeLabel;html=1;align=center;verticalAlign=middle;resizable=0;points=[];" vertex="1" connectable="0" parent="sXfEVG_WH88d6GnZostk-106">
          <mxGeometry x="0.2061" y="3" relative="1" as="geometry">
            <mxPoint as="offset" />
          </mxGeometry>
        </mxCell>
        <mxCell id="sXfEVG_WH88d6GnZostk-108" style="edgeStyle=orthogonalEdgeStyle;rounded=0;orthogonalLoop=1;jettySize=auto;html=1;entryX=0.5;entryY=0;entryDx=0;entryDy=0;" edge="1" source="sXfEVG_WH88d6GnZostk-110" target="sXfEVG_WH88d6GnZostk-156" parent="WIyWlLk6GJQsqaUBKTNV-1">
          <mxGeometry relative="1" as="geometry">
            <Array as="points">
              <mxPoint x="390" y="288.94" />
            </Array>
            <mxPoint x="248.67647058823468" y="558.998823529412" as="targetPoint" />
          </mxGeometry>
        </mxCell>
        <mxCell id="sXfEVG_WH88d6GnZostk-109" value="no" style="edgeLabel;html=1;align=center;verticalAlign=middle;resizable=0;points=[];" vertex="1" connectable="0" parent="sXfEVG_WH88d6GnZostk-108">
          <mxGeometry x="-0.2111" y="3" relative="1" as="geometry">
            <mxPoint as="offset" />
          </mxGeometry>
        </mxCell>
        <mxCell id="sXfEVG_WH88d6GnZostk-110" value="previous state found ?" style="rhombus;whiteSpace=wrap;html=1;shadow=0;fontFamily=Helvetica;fontSize=12;align=center;strokeWidth=1;spacing=6;spacingTop=-4;" vertex="1" parent="WIyWlLk6GJQsqaUBKTNV-1">
          <mxGeometry x="180" y="248.94" width="100" height="80" as="geometry" />
        </mxCell>
        <mxCell id="sXfEVG_WH88d6GnZostk-111" style="edgeStyle=orthogonalEdgeStyle;rounded=0;orthogonalLoop=1;jettySize=auto;html=1;" edge="1" source="sXfEVG_WH88d6GnZostk-112" target="sXfEVG_WH88d6GnZostk-98" parent="WIyWlLk6GJQsqaUBKTNV-1">
          <mxGeometry relative="1" as="geometry">
            <mxPoint x="230" y="493.94000000000005" as="targetPoint" />
          </mxGeometry>
        </mxCell>
        <mxCell id="sXfEVG_WH88d6GnZostk-112" value="restore session state" style="whiteSpace=wrap;html=1;shadow=0;strokeWidth=1;spacing=6;spacingTop=-4;" vertex="1" parent="WIyWlLk6GJQsqaUBKTNV-1">
          <mxGeometry x="170" y="388.94" width="120" height="60" as="geometry" />
        </mxCell>
        <mxCell id="sXfEVG_WH88d6GnZostk-113" value="start" style="ellipse;whiteSpace=wrap;html=1;aspect=fixed;" vertex="1" parent="WIyWlLk6GJQsqaUBKTNV-1">
          <mxGeometry x="210" y="134" width="40" height="40" as="geometry" />
        </mxCell>
        <mxCell id="sXfEVG_WH88d6GnZostk-155" style="edgeStyle=orthogonalEdgeStyle;rounded=0;orthogonalLoop=1;jettySize=auto;html=1;" edge="1" source="sXfEVG_WH88d6GnZostk-156" target="sXfEVG_WH88d6GnZostk-98" parent="WIyWlLk6GJQsqaUBKTNV-1">
          <mxGeometry relative="1" as="geometry">
            <Array as="points">
              <mxPoint x="390" y="548.94" />
              <mxPoint x="230" y="548.94" />
            </Array>
          </mxGeometry>
        </mxCell>
        <mxCell id="sXfEVG_WH88d6GnZostk-156" value="default state -&amp;gt; []" style="whiteSpace=wrap;html=1;shadow=0;strokeWidth=1;spacing=6;spacingTop=-4;" vertex="1" parent="WIyWlLk6GJQsqaUBKTNV-1">
          <mxGeometry x="330" y="388.94" width="120" height="60" as="geometry" />
        </mxCell>
        <mxCell id="sXfEVG_WH88d6GnZostk-160" value="&lt;font color=&quot;#ffffff&quot;&gt;end&lt;/font&gt;" style="ellipse;whiteSpace=wrap;html=1;aspect=fixed;fillColor=#000000;" vertex="1" parent="WIyWlLk6GJQsqaUBKTNV-1">
          <mxGeometry x="190" y="828.94" width="80" height="80" as="geometry" />
        </mxCell>
        <mxCell id="sXfEVG_WH88d6GnZostk-162" style="edgeStyle=orthogonalEdgeStyle;rounded=0;orthogonalLoop=1;jettySize=auto;html=1;" edge="1" parent="WIyWlLk6GJQsqaUBKTNV-1" source="sXfEVG_WH88d6GnZostk-161" target="sXfEVG_WH88d6GnZostk-160">
          <mxGeometry relative="1" as="geometry" />
        </mxCell>
        <mxCell id="sXfEVG_WH88d6GnZostk-161" value="display score" style="rounded=1;whiteSpace=wrap;html=1;fontSize=12;glass=0;strokeWidth=1;shadow=0;" vertex="1" parent="WIyWlLk6GJQsqaUBKTNV-1">
          <mxGeometry x="170" y="724" width="120" height="40" as="geometry" />
        </mxCell>
        <mxCell id="sXfEVG_WH88d6GnZostk-163" value="&lt;b&gt;&lt;font style=&quot;font-size: 20px;&quot;&gt;TODO display tests results so it can be used as the default test command&lt;/font&gt;&lt;/b&gt;" style="text;html=1;align=center;verticalAlign=middle;whiteSpace=wrap;rounded=0;" vertex="1" parent="WIyWlLk6GJQsqaUBKTNV-1">
          <mxGeometry x="-1385" y="1884" width="230" height="30" as="geometry" />
        </mxCell>
      </root>
    </mxGraphModel>
  </diagram>
</mxfile>
